<svg width="579" height="183" xmlns="http://www.w3.org/2000/svg" xmlns:xlink="http://www.w3.org/1999/xlink" xml:space="preserve" overflow="hidden"><defs><clipPath id="clip0"><rect x="350" y="239" width="579" height="183"/></clipPath></defs><g clip-path="url(#clip0)" transform="translate(-350 -239)"><path d="M2 32 18 0 58 0 74 32 58 64 18 64Z" fill="#FF5C5C" fill-rule="evenodd" transform="matrix(1 0 0 1.00268 371 242.707)"/><path d="M102 32 118 0 158 0 174 32 158 64 118 64Z" fill="#A8A8A8" fill-rule="evenodd" transform="matrix(1 0 0 1.00268 371 242.707)"/><path d="M202 32 218 0 258 0 274 32 258 64 218 64Z" fill="#FFBD4A" fill-rule="evenodd" transform="matrix(1 0 0 1.00268 371 242.707)"/><text font-family="Corbel,Corbel_MSFontService,sans-serif" font-weight="700" font-size="107" transform="matrix(0.999787 0 0 1.00289 364.67 415)">H E A T R I X</text><text font-family="Corbel,Corbel_MSFontService,sans-serif" font-weight="400" font-size="40" transform="matrix(0.998728 0 0 1.00395 369.688 479)">DECARBONIZING  INDUSTRY</text></g></svg>