<svg width="276" height="70" xmlns="http://www.w3.org/2000/svg" xmlns:xlink="http://www.w3.org/1999/xlink" xml:space="preserve" overflow="hidden"><defs><clipPath id="clip0"><rect x="372" y="239" width="276" height="70"/></clipPath></defs><g clip-path="url(#clip0)" transform="translate(-372 -239)"><path d="M2.00039 32.0063 18.0035 0 58.0114 0 74.0146 32.0063 58.0114 64.0126 18.0035 64.0126Z" fill="#FF5C5C" fill-rule="evenodd" transform="matrix(1 0 0 1.00409 371.785 242.713)"/><path d="M102.02 32.0063 118.023 0 158.031 0 174.034 32.0063 158.031 64.0126 118.023 64.0126Z" fill="#A8A8A8" fill-rule="evenodd" transform="matrix(1 0 0 1.00409 371.785 242.713)"/><path d="M202.04 32.0063 218.043 0 258.051 0 274.054 32.0063 258.051 64.0126 218.043 64.0126Z" fill="#FFBD4A" fill-rule="evenodd" transform="matrix(1 0 0 1.00409 371.785 242.713)"/><text font-family="Corbel,Corbel_MSFontService,sans-serif" font-weight="700" font-size="107" transform="matrix(0.999984 0 0 1.00451 365.454 415)">H E A T R I X</text><text font-family="Corbel,Corbel_MSFontService,sans-serif" font-weight="400" font-size="40" transform="matrix(0.998925 0 0 1.00557 370.473 480)">DECARBONIZING  INDUSTRY</text></g></svg>